<svg viewBox="0 0 16 16" aria-hidden="true" xmlns="http://www.w3.org/2000/svg">
  <path fill="currentColor" d="M8 0C3.58 0 0 3.67 0 8.2c0 3.62 2.29 6.69 5.47 7.77.4.08.55-.18.55-.4
  0-.2-.01-.86-.01-1.55-2.01.38-2.53-.5-2.69-.96-.09-.24-.48-.96-.82-1.15-.28-.15-.68-.52-.01-.53.63-.01
  1.08.59 1.23.83.72 1.21 1.87.87 2.33.66.07-.53.28-.87.51-1.07-1.78-.21-3.64-.91-3.64-4.05
  0-.9.31-1.64.83-2.22-.08-.2-.36-1.02.08-2.12 0 0 .67-.22 2.2.85.64-.18 1.32-.27 2-.27.68 0 1.36.09
  2 .27 1.52-1.07 2.19-.85 2.19-.85.44 1.1.16 1.92.08 2.12.52.58.83 1.32.83 2.22 0 3.15-1.87 3.83-3.65
  4.04.29.25.54.74.54 1.48 0 1.07-.01 1.93-.01 2.2 0 .22.15.49.55.4C13.71 14.88 16 11.82 16 8.2
  16 3.67 12.42 0 8 0z"/>
</svg>